{
    "asset" : {
        "generator" : "Khronos glTF Blender I/O v3.3.32",
        "version" : "2.0"
    },
    "extensionsUsed" : [
        "KHR_materials_specular",
        "KHR_materials_ior"
    ],
    "scene" : 0,
    "scenes" : [
        {
            "name" : "etu",
            "nodes" : [
                0
            ]
        }
    ],
    "nodes" : [
        {
            "mesh" : 0,
            "name" : "etu",
            "rotation" : [
                0.4473235309123993,
                0.5476330518722534,
                -0.5476328134536743,
                0.4473232626914978
            ],
            "scale" : [
                0.05401342362165451,
                0.05401342362165451,
                0.05401342362165451
            ],
            "translation" : [
                -0.18893486261367798,
                0.03578076511621475,
                1.0386008024215698
            ]
        }
    ],
    "materials" : [
        {
            "doubleSided" : true,
            "extensions" : {
                "KHR_materials_specular" : {
                    "specularColorFactor" : [
                        0,
                        0,
                        0
                    ]
                },
                "KHR_materials_ior" : {
                    "ior" : 1.4500000476837158
                }
            },
            "name" : "-\u00e9tud-",
            "pbrMetallicRoughness" : {
                "baseColorFactor" : [
                    0.008668612688779831,
                    0.008668612688779831,
                    0.008668612688779831,
                    1
                ],
                "metallicFactor" : 0,
                "roughnessFactor" : 0.5
            }
        }
    ],
    "meshes" : [
        {
            "name" : "Text.001",
            "primitives" : [
                {
                    "attributes" : {
                        "POSITION" : 0,
                        "NORMAL" : 1,
                        "TEXCOORD_0" : 2
                    },
                    "indices" : 3,
                    "material" : 0
                }
            ]
        }
    ],
    "accessors" : [
        {
            "bufferView" : 0,
            "componentType" : 5126,
            "count" : 10058,
            "max" : [
                7.780470371246338,
                0.05000000447034836,
                0.26284876465797424
            ],
            "min" : [
                -7.78046989440918,
                -0.05000000447034836,
                -0.41336268186569214
            ],
            "type" : "VEC3"
        },
        {
            "bufferView" : 1,
            "componentType" : 5126,
            "count" : 10058,
            "type" : "VEC3"
        },
        {
            "bufferView" : 2,
            "componentType" : 5126,
            "count" : 10058,
            "type" : "VEC2"
        },
        {
            "bufferView" : 3,
            "componentType" : 5123,
            "count" : 18648,
            "type" : "SCALAR"
        }
    ],
    "bufferViews" : [
        {
            "buffer" : 0,
            "byteLength" : 120696,
            "byteOffset" : 0,
            "target" : 34962
        },
        {
            "buffer" : 0,
            "byteLength" : 120696,
            "byteOffset" : 120696,
            "target" : 34962
        },
        {
            "buffer" : 0,
            "byteLength" : 80464,
            "byteOffset" : 241392,
            "target" : 34962
        },
        {
            "buffer" : 0,
            "byteLength" : 37296,
            "byteOffset" : 321856,
            "target" : 34963
        }
    ],
    "buffers" : [
        {
            "byteLength" : 359152,
            "uri" : "etu.bin"
        }
    ]
}
