{
    "asset" : {
        "generator" : "Khronos glTF Blender I/O v3.3.32",
        "version" : "2.0"
    },
    "extensionsUsed" : [
        "KHR_materials_specular",
        "KHR_materials_ior",
        "KHR_materials_emissive_strength"
    ],
    "scene" : 0,
    "scenes" : [
        {
            "name" : "Lampe",
            "nodes" : [
                0
            ]
        }
    ],
    "nodes" : [
        {
            "mesh" : 0,
            "name" : "Cylinder.009",
            "rotation" : [
                0,
                1,
                0,
                0
            ],
            "scale" : [
                -0.0807982087135315,
                -0.004675197880715132,
                -0.0807982087135315
            ],
            "translation" : [
                -0.06866446882486343,
                -0.3609873056411743,
                -0.5533568859100342
            ]
        }
    ],
    "materials" : [
        {
            "doubleSided" : true,
            "extensions" : {
                "KHR_materials_specular" : {
                    "specularColorFactor" : [
                        0,
                        0,
                        0
                    ]
                },
                "KHR_materials_ior" : {
                    "ior" : 1.4500000476837158
                }
            },
            "name" : "bois_table.012",
            "pbrMetallicRoughness" : {
                "baseColorFactor" : [
                    0.027717892080545425,
                    0.011269466020166874,
                    0.0028037377633154392,
                    1
                ],
                "metallicFactor" : 0,
                "roughnessFactor" : 0.5
            }
        },
        {
            "doubleSided" : true,
            "extensions" : {
                "KHR_materials_specular" : {
                    "specularColorFactor" : [
                        0,
                        0,
                        0
                    ]
                },
                "KHR_materials_ior" : {
                    "ior" : 1.4500000476837158
                }
            },
            "name" : "bois_table.013",
            "pbrMetallicRoughness" : {
                "baseColorFactor" : [
                    0.027717892080545425,
                    0.011269466020166874,
                    0.0028037377633154392,
                    1
                ],
                "metallicFactor" : 0,
                "roughnessFactor" : 0.5
            }
        },
        {
            "doubleSided" : true,
            "emissiveFactor" : [
                1,
                0.5731803774833679,
                0
            ],
            "extensions" : {
                "KHR_materials_emissive_strength" : {
                    "emissiveStrength" : 17
                }
            },
            "name" : "ampoule.001",
            "pbrMetallicRoughness" : {
                "baseColorFactor" : [
                    0,
                    0,
                    0,
                    1
                ]
            }
        }
    ],
    "meshes" : [
        {
            "name" : "lampe",
            "primitives" : [
                {
                    "attributes" : {
                        "POSITION" : 0,
                        "NORMAL" : 1,
                        "TEXCOORD_0" : 2
                    },
                    "indices" : 3,
                    "material" : 0
                },
                {
                    "attributes" : {
                        "POSITION" : 4,
                        "NORMAL" : 5,
                        "TEXCOORD_0" : 6
                    },
                    "indices" : 7,
                    "material" : 1
                },
                {
                    "attributes" : {
                        "POSITION" : 8,
                        "NORMAL" : 9,
                        "TEXCOORD_0" : 10
                    },
                    "indices" : 11,
                    "material" : 2
                }
            ]
        }
    ],
    "accessors" : [
        {
            "bufferView" : 0,
            "componentType" : 5126,
            "count" : 328,
            "max" : [
                1,
                4.1509504318237305,
                1
            ],
            "min" : [
                -1,
                -83.0890884399414,
                -1
            ],
            "type" : "VEC3"
        },
        {
            "bufferView" : 1,
            "componentType" : 5126,
            "count" : 328,
            "type" : "VEC3"
        },
        {
            "bufferView" : 2,
            "componentType" : 5126,
            "count" : 328,
            "type" : "VEC2"
        },
        {
            "bufferView" : 3,
            "componentType" : 5123,
            "count" : 1140,
            "type" : "SCALAR"
        },
        {
            "bufferView" : 4,
            "componentType" : 5126,
            "count" : 14589,
            "max" : [
                1.3679955005645752,
                -82.44835662841797,
                1.3854963779449463
            ],
            "min" : [
                -1.405609369277954,
                -127.71297454833984,
                -1.388108491897583
            ],
            "type" : "VEC3"
        },
        {
            "bufferView" : 5,
            "componentType" : 5126,
            "count" : 14589,
            "type" : "VEC3"
        },
        {
            "bufferView" : 6,
            "componentType" : 5126,
            "count" : 14589,
            "type" : "VEC2"
        },
        {
            "bufferView" : 7,
            "componentType" : 5123,
            "count" : 51840,
            "type" : "SCALAR"
        },
        {
            "bufferView" : 8,
            "componentType" : 5126,
            "count" : 1984,
            "max" : [
                0.288524866104126,
                -83.28199768066406,
                0.2980923354625702
            ],
            "min" : [
                -0.29736489057540894,
                -96.3002700805664,
                -0.28779760003089905
            ],
            "type" : "VEC3"
        },
        {
            "bufferView" : 9,
            "componentType" : 5126,
            "count" : 1984,
            "type" : "VEC3"
        },
        {
            "bufferView" : 10,
            "componentType" : 5126,
            "count" : 1984,
            "type" : "VEC2"
        },
        {
            "bufferView" : 11,
            "componentType" : 5123,
            "count" : 2880,
            "type" : "SCALAR"
        }
    ],
    "bufferViews" : [
        {
            "buffer" : 0,
            "byteLength" : 3936,
            "byteOffset" : 0,
            "target" : 34962
        },
        {
            "buffer" : 0,
            "byteLength" : 3936,
            "byteOffset" : 3936,
            "target" : 34962
        },
        {
            "buffer" : 0,
            "byteLength" : 2624,
            "byteOffset" : 7872,
            "target" : 34962
        },
        {
            "buffer" : 0,
            "byteLength" : 2280,
            "byteOffset" : 10496,
            "target" : 34963
        },
        {
            "buffer" : 0,
            "byteLength" : 175068,
            "byteOffset" : 12776,
            "target" : 34962
        },
        {
            "buffer" : 0,
            "byteLength" : 175068,
            "byteOffset" : 187844,
            "target" : 34962
        },
        {
            "buffer" : 0,
            "byteLength" : 116712,
            "byteOffset" : 362912,
            "target" : 34962
        },
        {
            "buffer" : 0,
            "byteLength" : 103680,
            "byteOffset" : 479624,
            "target" : 34963
        },
        {
            "buffer" : 0,
            "byteLength" : 23808,
            "byteOffset" : 583304,
            "target" : 34962
        },
        {
            "buffer" : 0,
            "byteLength" : 23808,
            "byteOffset" : 607112,
            "target" : 34962
        },
        {
            "buffer" : 0,
            "byteLength" : 15872,
            "byteOffset" : 630920,
            "target" : 34962
        },
        {
            "buffer" : 0,
            "byteLength" : 5760,
            "byteOffset" : 646792,
            "target" : 34963
        }
    ],
    "buffers" : [
        {
            "byteLength" : 652552,
            "uri" : "lampe.bin"
        }
    ]
}
