{
  "accessors": [
    {
      "bufferView": 2,
      "componentType": 5126,
      "count": 4181,
      "max": [
        0.9232999682426453,
        0.9248635768890381,
        0.8963524699211121
      ],
      "min": [
        -0.9232999682426453,
        -0.9248635768890381,
        -0.8963524699211121
      ],
      "type": "VEC3"
    },
    {
      "bufferView": 2,
      "byteOffset": 50172,
      "componentType": 5126,
      "count": 4181,
      "max": [
        0.9974626302719116,
        1.0,
        0.9524099230766296
      ],
      "min": [
        -0.9974626302719116,
        -1.0,
        -0.9524093270301819
      ],
      "type": "VEC3"
    },
    {
      "bufferView": 1,
      "componentType": 5126,
      "count": 4181,
      "max": [
        0.9772712588310242,
        0.4330158829689026
      ],
      "min": [
        0.022729095071554184,
        0.03936617821455002
      ],
      "type": "VEC2"
    },
    {
      "bufferView": 0,
      "componentType": 5125,
      "count": 9720,
      "type": "SCALAR"
    },
    {
      "bufferView": 2,
      "byteOffset": 100344,
      "componentType": 5126,
      "count": 1470,
      "max": [
        0.9093249440193176,
        0.8879338502883911,
        0.9303051233291626
      ],
      "min": [
        -0.9093250036239624,
        -0.8879338502883911,
        -0.9303051233291626
      ],
      "type": "VEC3"
    },
    {
      "bufferView": 2,
      "byteOffset": 117984,
      "componentType": 5126,
      "count": 1470,
      "max": [
        0.9936268925666809,
        0.9555538296699524,
        1.0
      ],
      "min": [
        -0.9936267137527466,
        -0.9555535316467285,
        -1.0
      ],
      "type": "VEC3"
    },
    {
      "bufferView": 1,
      "byteOffset": 33448,
      "componentType": 5126,
      "count": 1470,
      "max": [
        1.0,
        0.4723820686340332
      ],
      "min": [
        0.0,
        0.0
      ],
      "type": "VEC2"
    },
    {
      "bufferView": 0,
      "byteOffset": 38880,
      "componentType": 5125,
      "count": 3240,
      "type": "SCALAR"
    }
  ],
  "asset": {
    "extras": {
      "author": "Gold.Arm (https://sketchfab.com/Gold.Arm)",
      "license": "CC-BY-4.0 (http://creativecommons.org/licenses/by/4.0/)",
      "source": "https://sketchfab.com/3d-models/ball-3d-29391ca2abcd4ff0b2461baadde5e015",
      "title": "Ball​ 3D"
    },
    "generator": "Sketchfab-15.41.0",
    "version": "2.0"
  },
  "bufferViews": [
    {
      "buffer": 0,
      "byteLength": 51840,
      "name": "floatBufferViews",
      "target": 34963
    },
    {
      "buffer": 0,
      "byteLength": 45208,
      "byteOffset": 51840,
      "byteStride": 8,
      "name": "floatBufferViews",
      "target": 34962
    },
    {
      "buffer": 0,
      "byteLength": 135624,
      "byteOffset": 97048,
      "byteStride": 12,
      "name": "floatBufferViews",
      "target": 34962
    }
  ],
  "buffers": [
    {
      "byteLength": 232672,
      "uri": "scene2.bin"
    }
  ],
  "materials": [
    {
      "doubleSided": true,
      "name": "Material.001",
      "pbrMetallicRoughness": {
        "metallicFactor": 0.0,
        "roughnessFactor": 0.7763932022500211
      }
    },
    {
      "doubleSided": true,
      "name": "Material.002",
      "pbrMetallicRoughness": {
        "baseColorFactor": [
          0.0203785,
          0.0203785,
          0.0203785,
          1.0
        ],
        "metallicFactor": 0.0,
        "roughnessFactor": 0.995443228872052
      }
    }
  ],
  "meshes": [
    {
      "name": "Icosphere_Material.001_0",
      "primitives": [
        {
          "attributes": {
            "NORMAL": 1,
            "POSITION": 0,
            "TEXCOORD_0": 2
          },
          "indices": 3,
          "material": 0,
          "mode": 4
        }
      ]
    },
    {
      "name": "Icosphere_Material.002_0",
      "primitives": [
        {
          "attributes": {
            "NORMAL": 5,
            "POSITION": 4,
            "TEXCOORD_0": 6
          },
          "indices": 7,
          "material": 1,
          "mode": 4
        }
      ]
    }
  ],
  "nodes": [
    {
      "children": [
        1
      ],
      "matrix": [
        1.0,
        0.0,
        0.0,
        0.0,
        0.0,
        2.220446049250313e-16,
        -1.0,
        0.0,
        0.0,
        1.0,
        2.220446049250313e-16,
        0.0,
        0.0,
        0.0,
        0.0,
        1.0
      ],
      "name": "Sketchfab_model"
    },
    {
      "children": [
        2
      ],
      "matrix": [
        0.009999999776482582,
        0.0,
        0.0,
        0.0,
        0.0,
        0.0,
        0.009999999776482582,
        0.0,
        0.0,
        -0.009999999776482582,
        0.0,
        0.0,
        0.0,
        0.0,
        0.0,
        1.0
      ],
      "name": "236249875e934acc8732c2399a98deb8.fbx"
    },
    {
      "children": [
        3
      ],
      "name": "RootNode"
    },
    {
      "children": [
        4,
        5
      ],
      "matrix": [
        100.0,
        0.0,
        0.0,
        0.0,
        0.0,
        -1.629206793918314e-05,
        -99.99999999999868,
        0.0,
        0.0,
        99.99999999999868,
        -1.629206793918314e-05,
        0.0,
        0.0,
        0.0,
        0.0,
        1.0
      ],
      "name": "Icosphere"
    },
    {
      "mesh": 0,
      "name": "Icosphere_Material.001_0"
    },
    {
      "mesh": 1,
      "name": "Icosphere_Material.002_0"
    }
  ],
  "scene": 0,
  "scenes": [
    {
      "name": "Sketchfab_Scene",
      "nodes": [
        0
      ]
    }
  ]
}
