{
    "asset" : {
        "generator" : "Khronos glTF Blender I/O v3.3.32",
        "version" : "2.0"
    },
    "extensionsUsed" : [
        "KHR_materials_specular",
        "KHR_materials_ior"
    ],
    "scene" : 0,
    "scenes" : [
        {
            "name" : "Scene",
            "nodes" : [
                0
            ]
        }
    ],
    "nodes" : [
        {
            "mesh" : 0,
            "name" : "a",
            "rotation" : [
                0.4473235011100769,
                0.5476330518722534,
                -0.5476328134536743,
                0.4473232328891754
            ],
            "scale" : [
                0.24178439378738403,
                0.24178436398506165,
                0.24178442358970642
            ],
            "translation" : [
                -0.1279630959033966,
                0.40716996788978577,
                1.3362617492675781
            ]
        }
    ],
    "materials" : [
        {
            "doubleSided" : true,
            "extensions" : {
                "KHR_materials_specular" : {
                    "specularColorFactor" : [
                        0,
                        0,
                        0
                    ]
                },
                "KHR_materials_ior" : {
                    "ior" : 1.4500000476837158
                }
            },
            "name" : "laurianeg\u00e9l\u00e9bart",
            "pbrMetallicRoughness" : {
                "baseColorFactor" : [
                    0.7814190983772278,
                    0.5158330798149109,
                    0.004567083436995745,
                    1
                ],
                "metallicFactor" : 0,
                "roughnessFactor" : 0.4101123511791229
            }
        }
    ],
    "meshes" : [
        {
            "name" : "Text",
            "primitives" : [
                {
                    "attributes" : {
                        "POSITION" : 0,
                        "NORMAL" : 1,
                        "TEXCOORD_0" : 2
                    },
                    "indices" : 3,
                    "material" : 0
                }
            ]
        }
    ],
    "accessors" : [
        {
            "bufferView" : 0,
            "componentType" : 5126,
            "count" : 68,
            "max" : [
                0.26616936922073364,
                0.05000000447034836,
                0.27321726083755493
            ],
            "min" : [
                -0.2661689519882202,
                -0.05000000447034836,
                -0.27321726083755493
            ],
            "type" : "VEC3"
        },
        {
            "bufferView" : 1,
            "componentType" : 5126,
            "count" : 68,
            "type" : "VEC3"
        },
        {
            "bufferView" : 2,
            "componentType" : 5126,
            "count" : 68,
            "type" : "VEC2"
        },
        {
            "bufferView" : 3,
            "componentType" : 5123,
            "count" : 132,
            "type" : "SCALAR"
        }
    ],
    "bufferViews" : [
        {
            "buffer" : 0,
            "byteLength" : 816,
            "byteOffset" : 0,
            "target" : 34962
        },
        {
            "buffer" : 0,
            "byteLength" : 816,
            "byteOffset" : 816,
            "target" : 34962
        },
        {
            "buffer" : 0,
            "byteLength" : 544,
            "byteOffset" : 1632,
            "target" : 34962
        },
        {
            "buffer" : 0,
            "byteLength" : 264,
            "byteOffset" : 2176,
            "target" : 34963
        }
    ],
    "buffers" : [
        {
            "byteLength" : 2440,
            "uri" : "a.bin"
        }
    ]
}
