{
    "asset" : {
        "generator" : "Khronos glTF Blender I/O v3.3.32",
        "version" : "2.0"
    },
    "extensionsUsed" : [
        "KHR_materials_specular",
        "KHR_materials_ior"
    ],
    "scene" : 0,
    "scenes" : [
        {
            "name" : "Scene",
            "nodes" : [
                0
            ]
        }
    ],
    "nodes" : [
        {
            "mesh" : 0,
            "name" : "u",
            "rotation" : [
                0.4473235011100769,
                0.5476330518722534,
                -0.5476328134536743,
                0.4473232328891754
            ],
            "scale" : [
                0.24178439378738403,
                0.24178436398506165,
                0.24178442358970642
            ],
            "translation" : [
                -0.18566931784152985,
                0.33962687849998474,
                1.0585702657699585
            ]
        }
    ],
    "materials" : [
        {
            "doubleSided" : true,
            "extensions" : {
                "KHR_materials_specular" : {
                    "specularColorFactor" : [
                        0,
                        0,
                        0
                    ]
                },
                "KHR_materials_ior" : {
                    "ior" : 1.4500000476837158
                }
            },
            "name" : "laurianeg\u00e9l\u00e9bart.003",
            "pbrMetallicRoughness" : {
                "baseColorFactor" : [
                    0.7814190983772278,
                    0.5158330798149109,
                    0.004567083436995745,
                    1
                ],
                "metallicFactor" : 0,
                "roughnessFactor" : 0.4101123511791229
            }
        }
    ],
    "meshes" : [
        {
            "name" : "Text.004",
            "primitives" : [
                {
                    "attributes" : {
                        "POSITION" : 0,
                        "NORMAL" : 1,
                        "TEXCOORD_0" : 2
                    },
                    "indices" : 3,
                    "material" : 0
                }
            ]
        }
    ],
    "accessors" : [
        {
            "bufferView" : 0,
            "componentType" : 5126,
            "count" : 1550,
            "max" : [
                -0.44154196977615356,
                0.05000000447034836,
                0.010447807610034943
            ],
            "min" : [
                -0.8975950479507446,
                -0.05000000447034836,
                -0.5525704622268677
            ],
            "type" : "VEC3"
        },
        {
            "bufferView" : 1,
            "componentType" : 5126,
            "count" : 1550,
            "type" : "VEC3"
        },
        {
            "bufferView" : 2,
            "componentType" : 5126,
            "count" : 1550,
            "type" : "VEC2"
        },
        {
            "bufferView" : 3,
            "componentType" : 5123,
            "count" : 2940,
            "type" : "SCALAR"
        }
    ],
    "bufferViews" : [
        {
            "buffer" : 0,
            "byteLength" : 18600,
            "byteOffset" : 0,
            "target" : 34962
        },
        {
            "buffer" : 0,
            "byteLength" : 18600,
            "byteOffset" : 18600,
            "target" : 34962
        },
        {
            "buffer" : 0,
            "byteLength" : 12400,
            "byteOffset" : 37200,
            "target" : 34962
        },
        {
            "buffer" : 0,
            "byteLength" : 5880,
            "byteOffset" : 49600,
            "target" : 34963
        }
    ],
    "buffers" : [
        {
            "byteLength" : 55480,
            "uri" : "u.bin"
        }
    ]
}
